<svg width="250" height="69" viewBox="0 0 250 69" fill="none" xmlns="http://www.w3.org/2000/svg">
<path d="M72.744 58.5364H72.4382L69.3803 49.4646H70.7394L72.71 55.5464L74.9525 49.3287H75.1563L77.4328 55.5464L79.3015 49.4986H80.6605L77.7046 58.5703H77.3648L75.0544 52.2167L72.744 58.5364Z" fill="#282828"/>
<path d="M81.51 55.3088C81.51 54.8671 81.5779 54.4594 81.7478 54.0856C81.8837 53.7119 82.1216 53.3721 82.3934 53.1003C82.6652 52.8285 83.005 52.6246 83.3787 52.4548C83.7524 52.2849 84.1941 52.2169 84.6358 52.2169C85.0436 52.2169 85.4513 52.2849 85.825 52.4548C86.1988 52.5907 86.5385 52.8285 86.8103 53.1003C87.0822 53.4061 87.32 53.7459 87.4559 54.1536C87.6258 54.5613 87.6937 55.071 87.6937 55.6146L82.8691 55.6825C82.937 56.1922 83.1409 56.5999 83.4467 56.9057C83.7524 57.2115 84.1262 57.3814 84.6019 57.3814C84.9416 57.3814 85.2134 57.3134 85.4513 57.1435C85.6891 57.0076 85.893 56.8038 86.0289 56.5659H87.4559C87.2181 57.1436 86.8783 57.6192 86.3347 57.959C85.825 58.2988 85.2134 58.4686 84.5679 58.4686C84.1602 58.4686 83.7524 58.4007 83.3787 58.2308C83.005 58.0609 82.6992 57.8571 82.3934 57.5852C82.0876 57.3134 81.8837 56.9737 81.7138 56.5659C81.6119 56.2262 81.51 55.7845 81.51 55.3088ZM86.2327 54.6972C86.1308 54.2895 85.9609 53.9497 85.6891 53.7119C85.4173 53.4741 85.0436 53.3382 84.6358 53.3382C84.1941 53.3382 83.8204 53.4741 83.5146 53.7119C83.2088 53.9837 83.005 54.3235 82.903 54.7652L86.2327 54.6972Z" fill="#282828"/>
<path d="M93.8434 58.3661H92.5523V49.4642H94.8967C95.6102 49.4642 96.1538 49.5662 96.5955 49.77C97.0032 49.9739 97.343 50.2117 97.5469 50.5175C97.7507 50.7893 97.9206 51.0951 97.9886 51.4009C98.0565 51.7067 98.0905 51.9445 98.0905 52.1484C98.0905 52.3862 98.0565 52.658 97.9886 52.9638C97.9206 53.2696 97.7847 53.5754 97.5469 53.8472C97.309 54.119 97.0032 54.3569 96.5955 54.5607C96.1878 54.7646 95.6102 54.8325 94.9307 54.8325H93.8434V58.3661ZM93.8434 53.7113H94.7948C95.3724 53.7113 95.848 53.5754 96.2218 53.3376C96.5615 53.0997 96.7314 52.692 96.7314 52.1484C96.7314 51.9445 96.6975 51.7407 96.6295 51.5368C96.5616 51.3329 96.4596 51.1631 96.2897 51.0271C96.1199 50.8912 95.916 50.7553 95.6782 50.6874C95.4403 50.5855 95.1345 50.5515 94.7608 50.5515H93.8434V53.7113Z" fill="#282828"/>
<path d="M103.153 53.3712C103.051 53.3372 102.983 53.3372 102.881 53.3372C102.779 53.3372 102.711 53.3372 102.61 53.3372C102.372 53.3372 102.168 53.3712 101.964 53.4392C101.76 53.5071 101.59 53.609 101.42 53.7449C101.284 53.8809 101.149 54.0847 101.081 54.2886C100.979 54.5264 100.945 54.7642 100.945 55.104V58.3658H99.6536V52.3179H100.945V53.1674C101.25 52.7936 101.59 52.5218 101.964 52.3859C102.338 52.25 102.745 52.182 103.153 52.216V53.3712Z" fill="#282828"/>
<path d="M107.128 58.5026C106.687 58.5026 106.279 58.4347 105.905 58.2648C105.532 58.0949 105.192 57.891 104.886 57.6192C104.614 57.3474 104.376 57.0076 104.206 56.5999C104.037 56.1922 103.969 55.7845 103.969 55.3088C103.969 54.8671 104.037 54.4594 104.206 54.0856C104.376 53.7119 104.58 53.3721 104.852 53.1003C105.124 52.8285 105.464 52.6246 105.837 52.4548C106.211 52.2849 106.653 52.2169 107.128 52.2169C107.57 52.2169 108.012 52.2849 108.386 52.4548C108.759 52.5907 109.099 52.8285 109.405 53.1003C109.677 53.3721 109.914 53.7119 110.084 54.0856C110.254 54.4594 110.322 54.8671 110.322 55.3428C110.322 55.8184 110.254 56.2601 110.084 56.6339C109.914 57.0416 109.677 57.3474 109.405 57.6532C109.133 57.959 108.793 58.1628 108.386 58.2988C107.978 58.4347 107.57 58.5026 107.128 58.5026ZM107.128 53.3382C106.585 53.3382 106.143 53.508 105.803 53.8818C105.464 54.2555 105.294 54.7312 105.294 55.3088C105.294 55.6146 105.328 55.8864 105.43 56.1582C105.532 56.3961 105.667 56.6339 105.803 56.8038C105.973 56.9737 106.177 57.1096 106.381 57.2115C106.619 57.3134 106.857 57.3474 107.094 57.3474C107.366 57.3474 107.604 57.3134 107.842 57.2115C108.08 57.1096 108.25 56.9737 108.42 56.8038C108.589 56.6339 108.725 56.3961 108.793 56.1582C108.895 55.9204 108.929 55.6146 108.929 55.3088C108.929 54.7312 108.759 54.2216 108.42 53.8818C108.114 53.542 107.672 53.3382 107.128 53.3382Z" fill="#282828"/>
<path d="M111.579 52.3183H113.006L114.569 56.0217L116.064 52.3183H117.491L114.773 58.57H114.433L111.579 52.3183Z" fill="#282828"/>
<path d="M119.088 50.4501C119.088 50.2802 119.156 50.1103 119.258 49.9404C119.36 49.7705 119.564 49.6686 119.87 49.6686C120.175 49.6686 120.379 49.7705 120.481 49.9404C120.583 50.1103 120.651 50.2802 120.651 50.4501C120.651 50.6199 120.583 50.7898 120.481 50.9597C120.379 51.1296 120.175 51.2315 119.87 51.2315C119.564 51.2315 119.36 51.1296 119.258 50.9597C119.156 50.7898 119.088 50.6199 119.088 50.4501ZM120.515 58.3666H119.224V52.3188H120.515V58.3666Z" fill="#282828"/>
<path d="M127.345 58.3664V57.3131C127.141 57.6869 126.869 57.9587 126.495 58.1625C126.121 58.3664 125.68 58.4683 125.17 58.4683C124.762 58.4683 124.355 58.4004 124.015 58.2305C123.641 58.0606 123.335 57.8568 123.063 57.551C122.792 57.2792 122.588 56.9394 122.452 56.5317C122.316 56.124 122.214 55.7162 122.214 55.2745C122.214 54.7989 122.282 54.3912 122.418 54.0174C122.554 53.6437 122.758 53.3039 123.029 53.0321C123.301 52.7603 123.607 52.5564 123.947 52.3865C124.287 52.2506 124.694 52.1487 125.102 52.1487C125.646 52.1487 126.087 52.2506 126.461 52.4885C126.835 52.6923 127.107 52.9981 127.277 53.3379V48.751H128.568V58.3324H127.345V58.3664ZM125.442 57.4151C125.68 57.4151 125.917 57.3811 126.155 57.2792C126.393 57.1772 126.597 57.0413 126.767 56.8714C126.937 56.7016 127.073 56.4977 127.175 56.2259C127.277 55.9541 127.345 55.6823 127.345 55.3765V55.3085C127.345 55.0027 127.277 54.7309 127.175 54.4931C127.073 54.2552 126.937 54.0514 126.767 53.8475C126.597 53.6437 126.393 53.5417 126.155 53.4398C125.917 53.3379 125.68 53.3039 125.442 53.3039C125.17 53.3039 124.932 53.3379 124.728 53.4398C124.49 53.5417 124.321 53.6437 124.151 53.8135C123.981 53.9834 123.845 54.1873 123.743 54.4251C123.641 54.663 123.607 54.9687 123.607 55.2745C123.607 55.5803 123.641 55.8861 123.743 56.124C123.845 56.3958 123.981 56.5996 124.151 56.7695C124.321 56.9394 124.524 57.0753 124.762 57.1772C124.966 57.3471 125.204 57.4151 125.442 57.4151Z" fill="#282828"/>
<path d="M130.266 55.3088C130.266 54.8671 130.334 54.4594 130.504 54.0856C130.64 53.7119 130.878 53.3721 131.15 53.1003C131.422 52.8285 131.761 52.6246 132.135 52.4548C132.509 52.2849 132.951 52.2169 133.392 52.2169C133.8 52.2169 134.208 52.2849 134.582 52.4548C134.955 52.5907 135.295 52.8285 135.567 53.1003C135.839 53.4061 136.076 53.7459 136.212 54.1536C136.382 54.5613 136.45 55.071 136.45 55.6146L131.626 55.6825C131.693 56.1922 131.897 56.5999 132.203 56.9057C132.509 57.2115 132.883 57.3814 133.358 57.3814C133.698 57.3814 133.97 57.3134 134.208 57.1435C134.446 57.0076 134.649 56.8038 134.785 56.5659H136.212C135.975 57.1436 135.635 57.6192 135.091 57.959C134.582 58.2988 133.97 58.4686 133.324 58.4686C132.917 58.4686 132.509 58.4007 132.135 58.2308C131.761 58.0609 131.456 57.8571 131.15 57.5852C130.844 57.3134 130.64 56.9737 130.47 56.5659C130.334 56.2262 130.266 55.7845 130.266 55.3088ZM134.955 54.6972C134.853 54.2895 134.683 53.9497 134.412 53.7119C134.14 53.4741 133.766 53.3382 133.358 53.3382C132.917 53.3382 132.543 53.4741 132.237 53.7119C131.931 53.9837 131.727 54.3235 131.626 54.7652L134.955 54.6972Z" fill="#282828"/>
<path d="M144.774 58.3661H143.483V50.5855H140.969V49.4642H147.323V50.5855H144.808V58.3661H144.774Z" fill="#282828"/>
<path d="M151.502 53.3712C151.4 53.3372 151.332 53.3372 151.23 53.3372C151.128 53.3372 151.06 53.3372 150.958 53.3372C150.72 53.3372 150.516 53.3712 150.312 53.4392C150.109 53.5071 149.939 53.609 149.769 53.7449C149.633 53.8809 149.497 54.0847 149.429 54.2886C149.327 54.5264 149.293 54.7642 149.293 55.104V58.3658H148.002V52.3179H149.293V53.1674C149.599 52.7936 149.939 52.5218 150.312 52.3859C150.686 52.25 151.094 52.182 151.502 52.216V53.3712Z" fill="#282828"/>
<path d="M155.579 58.5017C155.273 58.5017 154.968 58.4337 154.662 58.3318C154.356 58.2298 154.118 58.06 153.88 57.8561C153.642 57.6523 153.473 57.4144 153.337 57.1086C153.201 56.8028 153.133 56.4631 153.133 56.0554V52.2839H154.424V55.5457C154.424 56.1913 154.56 56.6669 154.866 56.9387C155.171 57.2106 155.511 57.3465 155.953 57.3465C156.395 57.3465 156.734 57.1766 157.04 56.8708C157.346 56.565 157.482 56.0893 157.482 55.5117V52.2839H158.773V58.3658H157.482V57.4824C157.278 57.7882 157.006 58.026 156.666 58.2299C156.361 58.3997 155.987 58.5017 155.579 58.5017Z" fill="#282828"/>
<path d="M163.122 54.8998C163.462 55.0357 163.734 55.1716 163.971 55.3075C164.209 55.4434 164.379 55.5794 164.515 55.7153C164.651 55.8512 164.753 56.021 164.821 56.1909C164.889 56.3608 164.923 56.5647 164.923 56.8025C164.923 57.0743 164.855 57.3122 164.753 57.516C164.617 57.7199 164.481 57.8898 164.277 58.0596C164.073 58.1955 163.835 58.3314 163.564 58.3994C163.292 58.4674 163.02 58.5013 162.714 58.5013C162.273 58.5013 161.933 58.4334 161.627 58.3314C161.321 58.2295 161.083 58.0936 160.913 57.9237C160.744 57.7539 160.608 57.584 160.54 57.3801C160.472 57.1762 160.438 56.9724 160.438 56.7685H161.729C161.729 56.9724 161.831 57.1423 161.967 57.3121C162.137 57.482 162.374 57.55 162.68 57.55C162.986 57.55 163.224 57.482 163.36 57.3461C163.496 57.2102 163.598 57.0064 163.598 56.8025C163.598 56.6666 163.564 56.5647 163.496 56.4627C163.428 56.3608 163.326 56.2928 163.19 56.1909C163.054 56.123 162.884 56.021 162.714 55.9531C162.544 55.8851 162.34 55.7832 162.137 55.7153C161.797 55.5794 161.525 55.4095 161.321 55.2735C161.117 55.1037 160.981 54.9678 160.879 54.7979C160.778 54.628 160.71 54.4581 160.676 54.2882C160.642 54.1183 160.608 53.9485 160.608 53.7786C160.608 53.5747 160.642 53.4048 160.744 53.201C160.846 53.0311 160.947 52.8612 161.117 52.7253C161.287 52.5894 161.491 52.4875 161.729 52.3855C161.967 52.2836 162.239 52.2496 162.578 52.2496C162.918 52.2496 163.224 52.2836 163.496 52.3855C163.767 52.4875 163.971 52.5894 164.141 52.7253C164.311 52.8612 164.447 53.0651 164.549 53.2349C164.651 53.4388 164.685 53.6427 164.685 53.8465H163.394C163.394 53.6427 163.326 53.4728 163.19 53.3709C163.054 53.2689 162.85 53.167 162.612 53.167C162.408 53.167 162.239 53.235 162.103 53.3369C161.967 53.4388 161.899 53.6087 161.899 53.8126C161.899 54.0504 162.001 54.2543 162.205 54.3902C162.408 54.5261 162.714 54.7299 163.122 54.8998Z" fill="#282828"/>
<path d="M170.155 58.3658C169.577 58.3318 169.102 58.2638 168.762 58.1619C168.422 58.06 168.083 57.8901 167.879 57.6523C167.641 57.4484 167.505 57.1766 167.403 56.8708C167.301 56.565 167.267 56.2252 167.267 55.8515V53.3712H166.248V52.3179H167.267V50.5851L168.558 50.1434V52.284H170.189V53.3372H168.558V55.3758C168.558 55.7156 168.558 56.0214 168.592 56.2592C168.626 56.4971 168.694 56.6669 168.796 56.8028C168.898 56.9387 169.068 57.0407 169.272 57.1086C169.476 57.1766 169.781 57.2106 170.155 57.2446V58.3658Z" fill="#282828"/>
<path d="M171.446 55.3088C171.446 54.8671 171.514 54.4594 171.684 54.0856C171.82 53.7119 172.058 53.3721 172.329 53.1003C172.601 52.8285 172.941 52.6246 173.315 52.4548C173.689 52.2849 174.13 52.2169 174.572 52.2169C174.98 52.2169 175.387 52.2849 175.761 52.4548C176.135 52.5907 176.475 52.8285 176.746 53.1003C177.018 53.4061 177.256 53.7459 177.392 54.1536C177.562 54.5613 177.63 55.071 177.63 55.6146L172.805 55.6825C172.873 56.1922 173.077 56.5999 173.383 56.9057C173.689 57.2115 174.062 57.3814 174.538 57.3814C174.878 57.3814 175.15 57.3134 175.387 57.1435C175.625 57.0076 175.829 56.8038 175.965 56.5659H177.392C177.154 57.1436 176.814 57.6192 176.271 57.959C175.761 58.2988 175.15 58.4686 174.504 58.4686C174.096 58.4686 173.689 58.4007 173.315 58.2308C172.941 58.0609 172.635 57.8571 172.329 57.5852C172.024 57.3134 171.82 56.9737 171.65 56.5659C171.514 56.2262 171.446 55.7845 171.446 55.3088ZM176.135 54.6972C176.033 54.2895 175.863 53.9497 175.591 53.7119C175.319 53.4741 174.946 53.3382 174.538 53.3382C174.096 53.3382 173.723 53.4741 173.417 53.7119C173.111 53.9837 172.907 54.3235 172.805 54.7652L176.135 54.6972Z" fill="#282828"/>
<path d="M184.017 58.3664V57.3131C183.814 57.6869 183.542 57.9587 183.168 58.1625C182.794 58.3664 182.353 58.4683 181.843 58.4683C181.435 58.4683 181.027 58.4004 180.688 58.2305C180.314 58.0606 180.008 57.8568 179.736 57.551C179.465 57.2792 179.261 56.9394 179.125 56.5317C178.989 56.124 178.887 55.7162 178.887 55.2745C178.887 54.7989 178.955 54.3912 179.091 54.0174C179.227 53.6437 179.431 53.3039 179.702 53.0321C179.974 52.7603 180.28 52.5564 180.62 52.3865C180.959 52.2506 181.367 52.1487 181.775 52.1487C182.319 52.1487 182.76 52.2506 183.134 52.4885C183.508 52.6923 183.78 52.9981 183.949 53.3379V48.751H185.241V58.3324H184.017V58.3664ZM182.115 57.4151C182.353 57.4151 182.59 57.3811 182.828 57.2792C183.066 57.1772 183.27 57.0413 183.44 56.8714C183.61 56.7016 183.746 56.4977 183.848 56.2259C183.949 55.9541 184.017 55.6823 184.017 55.3765V55.3085C184.017 55.0027 183.949 54.7309 183.848 54.4931C183.746 54.2552 183.61 54.0514 183.44 53.8475C183.27 53.6437 183.066 53.5417 182.828 53.4398C182.59 53.3379 182.353 53.3039 182.115 53.3039C181.843 53.3039 181.605 53.3379 181.401 53.4398C181.163 53.5417 180.993 53.6437 180.824 53.8135C180.654 53.9834 180.518 54.1873 180.416 54.4251C180.314 54.663 180.28 54.9687 180.28 55.2745C180.28 55.5803 180.314 55.8861 180.416 56.124C180.518 56.3958 180.654 56.5996 180.824 56.7695C180.993 56.9394 181.197 57.0753 181.435 57.1772C181.639 57.3471 181.877 57.4151 182.115 57.4151Z" fill="#282828"/>
<path d="M190.473 49.4642H192.715C193.463 49.4642 194.041 49.5662 194.448 49.77C194.856 49.9739 195.196 50.2117 195.434 50.4835C195.671 50.7553 195.807 51.0611 195.875 51.3669C195.943 51.6727 195.977 51.9445 195.977 52.1824C195.977 52.3862 195.943 52.6241 195.875 52.8959C195.807 53.1677 195.705 53.4055 195.502 53.6773C195.332 53.9152 195.06 54.153 194.754 54.3569C194.448 54.5607 194.007 54.6966 193.497 54.7646L196.283 58.4001H194.686L191.73 54.3569V58.4001H190.439V49.4642H190.473ZM191.764 53.6773H192.715C193.327 53.6773 193.803 53.5414 194.176 53.3036C194.55 53.0658 194.686 52.692 194.686 52.1824C194.686 51.9785 194.652 51.7746 194.584 51.5708C194.516 51.3669 194.414 51.197 194.278 51.0611C194.143 50.9252 193.939 50.7893 193.667 50.7214C193.429 50.6194 193.089 50.5855 192.715 50.5855H191.764V53.6773Z" fill="#282828"/>
<path d="M197.404 55.3088C197.404 54.8671 197.472 54.4594 197.642 54.0856C197.778 53.7119 198.016 53.3721 198.288 53.1003C198.559 52.8285 198.899 52.6246 199.273 52.4548C199.647 52.2849 200.088 52.2169 200.53 52.2169C200.938 52.2169 201.346 52.2849 201.719 52.4548C202.093 52.5907 202.433 52.8285 202.705 53.1003C202.976 53.4061 203.214 53.7459 203.35 54.1536C203.52 54.5613 203.588 55.071 203.588 55.6146L198.763 55.6825C198.831 56.1922 199.035 56.5999 199.341 56.9057C199.647 57.2115 200.02 57.3814 200.496 57.3814C200.836 57.3814 201.108 57.3134 201.346 57.1435C201.583 57.0076 201.787 56.8038 201.923 56.5659H203.35C203.112 57.1436 202.773 57.6192 202.229 57.959C201.719 58.2988 201.108 58.4686 200.462 58.4686C200.054 58.4686 199.647 58.4007 199.273 58.2308C198.899 58.0609 198.593 57.8571 198.288 57.5852C197.982 57.3134 197.778 56.9737 197.608 56.5659C197.472 56.2262 197.404 55.7845 197.404 55.3088ZM202.093 54.6972C201.991 54.2895 201.821 53.9497 201.549 53.7119C201.278 53.4741 200.904 53.3382 200.496 53.3382C200.054 53.3382 199.681 53.4741 199.375 53.7119C199.069 53.9837 198.865 54.3235 198.763 54.7652L202.093 54.6972Z" fill="#282828"/>
<path d="M207.597 54.8998C207.937 55.0357 208.209 55.1716 208.447 55.3075C208.685 55.4434 208.854 55.5794 208.99 55.7153C209.126 55.8512 209.228 56.021 209.296 56.1909C209.364 56.3608 209.398 56.5647 209.398 56.8025C209.398 57.0743 209.33 57.3122 209.228 57.516C209.092 57.7199 208.956 57.8898 208.752 58.0596C208.549 58.1955 208.311 58.3314 208.039 58.3994C207.767 58.4674 207.495 58.5013 207.19 58.5013C206.748 58.5013 206.408 58.4334 206.102 58.3314C205.797 58.2295 205.559 58.0936 205.389 57.9237C205.219 57.7539 205.083 57.584 205.015 57.3801C204.947 57.1762 204.913 56.9724 204.913 56.7685H206.204C206.204 56.9724 206.306 57.1423 206.442 57.3121C206.612 57.482 206.85 57.55 207.156 57.55C207.461 57.55 207.699 57.482 207.835 57.3461C207.971 57.2102 208.073 57.0064 208.073 56.8025C208.073 56.6666 208.039 56.5647 207.971 56.4627C207.903 56.3608 207.801 56.2928 207.665 56.1909C207.529 56.123 207.359 56.021 207.19 55.9531C207.02 55.8851 206.816 55.7832 206.612 55.7153C206.272 55.5794 206 55.4095 205.797 55.2735C205.593 55.1037 205.457 54.9678 205.355 54.7979C205.253 54.628 205.185 54.4581 205.151 54.2882C205.117 54.1183 205.083 53.9485 205.083 53.7786C205.083 53.5747 205.117 53.4048 205.219 53.201C205.321 53.0311 205.423 52.8612 205.593 52.7253C205.763 52.5894 205.966 52.4875 206.204 52.3855C206.442 52.2836 206.714 52.2496 207.054 52.2496C207.393 52.2496 207.699 52.2836 207.971 52.3855C208.243 52.4875 208.447 52.5894 208.617 52.7253C208.786 52.8612 208.922 53.0651 209.024 53.2349C209.126 53.4388 209.16 53.6427 209.16 53.8465H207.869C207.869 53.6427 207.801 53.4728 207.665 53.3709C207.529 53.2689 207.325 53.167 207.088 53.167C206.884 53.167 206.714 53.235 206.578 53.3369C206.442 53.4388 206.374 53.6087 206.374 53.8126C206.374 54.0504 206.476 54.2543 206.68 54.3902C206.884 54.5261 207.19 54.7299 207.597 54.8998Z" fill="#282828"/>
<path d="M213.849 58.5026C213.407 58.5026 213 58.4347 212.626 58.2648C212.252 58.0949 211.912 57.891 211.607 57.6192C211.335 57.3474 211.097 57.0076 210.927 56.5999C210.757 56.1922 210.689 55.7845 210.689 55.3088C210.689 54.8671 210.757 54.4594 210.927 54.0856C211.097 53.7119 211.301 53.3721 211.573 53.1003C211.844 52.8285 212.184 52.6246 212.558 52.4548C212.932 52.2849 213.373 52.2169 213.849 52.2169C214.291 52.2169 214.732 52.2849 215.106 52.4548C215.48 52.5907 215.82 52.8285 216.125 53.1003C216.397 53.3721 216.635 53.7119 216.805 54.0856C216.975 54.4594 217.043 54.8671 217.043 55.3428C217.043 55.8184 216.975 56.2601 216.805 56.6339C216.635 57.0416 216.397 57.3474 216.125 57.6532C215.854 57.959 215.514 58.1628 215.106 58.2988C214.698 58.4347 214.291 58.5026 213.849 58.5026ZM213.849 53.3382C213.305 53.3382 212.864 53.508 212.524 53.8818C212.184 54.2555 212.014 54.7312 212.014 55.3088C212.014 55.6146 212.048 55.8864 212.15 56.1582C212.252 56.3961 212.388 56.6339 212.524 56.8038C212.694 56.9737 212.898 57.1096 213.102 57.2115C213.339 57.3134 213.577 57.3474 213.815 57.3474C214.087 57.3474 214.325 57.3134 214.563 57.2115C214.8 57.1096 214.97 56.9737 215.14 56.8038C215.31 56.6339 215.446 56.3961 215.514 56.1582C215.616 55.9204 215.65 55.6146 215.65 55.3088C215.65 54.7312 215.48 54.2216 215.14 53.8818C214.834 53.542 214.393 53.3382 213.849 53.3382Z" fill="#282828"/>
<path d="M221.086 58.5017C220.78 58.5017 220.475 58.4337 220.169 58.3318C219.863 58.2298 219.625 58.06 219.387 57.8561C219.149 57.6523 218.98 57.4144 218.844 57.1086C218.708 56.8028 218.64 56.4631 218.64 56.0554V52.2839H219.931V55.5457C219.931 56.1913 220.067 56.6669 220.373 56.9387C220.678 57.2106 221.018 57.3465 221.46 57.3465C221.902 57.3465 222.241 57.1766 222.547 56.8708C222.853 56.565 222.989 56.0893 222.989 55.5117V52.2839H224.28V58.3658H222.989V57.4824C222.785 57.7882 222.513 58.026 222.173 58.2299C221.834 58.3997 221.46 58.5017 221.086 58.5017Z" fill="#282828"/>
<path d="M229.716 53.3712C229.614 53.3372 229.546 53.3372 229.444 53.3372C229.342 53.3372 229.274 53.3372 229.172 53.3372C228.935 53.3372 228.731 53.3712 228.527 53.4392C228.323 53.5071 228.153 53.609 227.983 53.7449C227.847 53.8809 227.711 54.0847 227.644 54.2886C227.542 54.5264 227.508 54.7642 227.508 55.104V58.3658H226.217V52.3179H227.508V53.1674C227.813 52.7936 228.153 52.5218 228.527 52.3859C228.901 52.25 229.308 52.182 229.716 52.216V53.3712Z" fill="#282828"/>
<path d="M230.701 55.3075C230.701 54.8658 230.769 54.4241 230.939 54.0504C231.109 53.6766 231.313 53.3369 231.585 53.0651C231.857 52.7932 232.196 52.5894 232.57 52.4535C232.944 52.3176 233.352 52.2496 233.793 52.2496C234.473 52.2496 235.084 52.4195 235.56 52.7593C236.036 53.0991 236.41 53.5407 236.613 54.1183H235.22C235.084 53.8805 234.881 53.7106 234.643 53.5747C234.405 53.4388 234.133 53.3709 233.793 53.3709C233.25 53.3709 232.808 53.5407 232.502 53.9145C232.196 54.2882 232.027 54.7639 232.027 55.3415C232.027 55.6473 232.061 55.9191 232.162 56.1909C232.264 56.4627 232.366 56.6666 232.536 56.8365C232.706 57.0064 232.876 57.1423 233.08 57.2442C233.284 57.3461 233.522 57.3801 233.793 57.3801C234.167 57.3801 234.473 57.2782 234.711 57.1083C234.983 56.9384 235.152 56.7006 235.288 56.3948H236.647C236.444 57.0403 236.104 57.55 235.594 57.9237C235.084 58.2975 234.473 58.5013 233.759 58.5013C233.318 58.5013 232.91 58.4334 232.536 58.2635C232.162 58.0936 231.823 57.8898 231.551 57.6179C231.279 57.3461 231.041 57.0064 230.905 56.5986C230.803 56.2249 230.701 55.7832 230.701 55.3075Z" fill="#282828"/>
<path d="M237.973 55.3088C237.973 54.8671 238.04 54.4594 238.21 54.0856C238.346 53.7119 238.584 53.3721 238.856 53.1003C239.128 52.8285 239.467 52.6246 239.841 52.4548C240.215 52.2849 240.657 52.2169 241.098 52.2169C241.506 52.2169 241.914 52.2849 242.288 52.4548C242.661 52.5907 243.001 52.8285 243.273 53.1003C243.545 53.4061 243.783 53.7459 243.918 54.1536C244.088 54.5613 244.156 55.071 244.156 55.6146L239.332 55.6825C239.4 56.1922 239.603 56.5999 239.909 56.9057C240.215 57.2115 240.589 57.3814 241.064 57.3814C241.404 57.3814 241.676 57.3134 241.914 57.1435C242.152 57.0076 242.355 56.8038 242.491 56.5659H243.918C243.681 57.1436 243.341 57.6192 242.797 57.959C242.288 58.2988 241.676 58.4686 241.03 58.4686C240.623 58.4686 240.215 58.4007 239.841 58.2308C239.467 58.0609 239.162 57.8571 238.856 57.5852C238.55 57.3134 238.346 56.9737 238.176 56.5659C238.04 56.2262 237.973 55.7845 237.973 55.3088ZM242.695 54.6972C242.593 54.2895 242.423 53.9497 242.152 53.7119C241.88 53.4741 241.506 53.3382 241.098 53.3382C240.657 53.3382 240.283 53.4741 239.977 53.7119C239.671 53.9837 239.467 54.3235 239.366 54.7652L242.695 54.6972Z" fill="#282828"/>
<path d="M248.199 54.8998C248.539 55.0357 248.811 55.1716 249.049 55.3075C249.287 55.4434 249.456 55.5794 249.592 55.7153C249.728 55.8512 249.83 56.021 249.898 56.1909C249.966 56.3608 250 56.5647 250 56.8025C250 57.0743 249.932 57.3122 249.83 57.516C249.694 57.7199 249.558 57.8898 249.354 58.0596C249.151 58.1955 248.913 58.3314 248.641 58.3994C248.369 58.4674 248.097 58.5013 247.792 58.5013C247.35 58.5013 247.01 58.4334 246.704 58.3314C246.399 58.2295 246.161 58.0936 245.991 57.9237C245.821 57.7539 245.685 57.584 245.617 57.3801C245.549 57.1762 245.515 56.9724 245.515 56.7685H246.806C246.806 56.9724 246.908 57.1423 247.044 57.3121C247.214 57.482 247.452 57.55 247.758 57.55C248.063 57.55 248.301 57.482 248.437 57.3461C248.573 57.2102 248.675 57.0064 248.675 56.8025C248.675 56.6666 248.641 56.5647 248.573 56.4627C248.505 56.3608 248.403 56.2928 248.267 56.1909C248.131 56.123 247.961 56.021 247.792 55.9531C247.622 55.8851 247.418 55.7832 247.214 55.7153C246.874 55.5794 246.602 55.4095 246.399 55.2735C246.195 55.1037 246.059 54.9678 245.957 54.7979C245.855 54.628 245.787 54.4581 245.753 54.2882C245.719 54.1183 245.685 53.9485 245.685 53.7786C245.685 53.5747 245.719 53.4048 245.821 53.201C245.923 53.0311 246.025 52.8612 246.195 52.7253C246.365 52.5894 246.568 52.4875 246.806 52.3855C247.044 52.2836 247.316 52.2496 247.656 52.2496C247.995 52.2496 248.301 52.2836 248.573 52.3855C248.845 52.4875 249.049 52.5894 249.219 52.7253C249.388 52.8612 249.524 53.0651 249.626 53.2349C249.728 53.4388 249.762 53.6427 249.762 53.8465H248.471C248.471 53.6427 248.403 53.4728 248.267 53.3709C248.131 53.2689 247.927 53.167 247.69 53.167C247.486 53.167 247.316 53.235 247.18 53.3369C247.044 53.4388 246.976 53.6087 246.976 53.8126C246.976 54.0504 247.078 54.2543 247.282 54.3902C247.486 54.5261 247.758 54.7299 248.199 54.8998Z" fill="#282828"/>
<path d="M69.1084 33.9045C70.0258 34.0404 70.8752 34.1763 71.6567 34.3122C72.4381 34.4481 73.1517 34.5161 73.7632 34.5161C74.2729 34.5161 74.7486 34.4481 75.1563 34.3122C75.564 34.1763 75.9038 33.9045 76.2096 33.5647C76.4814 33.191 76.7192 32.6813 76.8551 32.0697C76.991 31.4242 77.059 30.6427 77.059 29.6574V10.3247H83.7184V31.7979C83.7184 33.4968 83.4126 34.8898 82.835 35.9771C82.2574 37.0643 81.5099 37.9137 80.5925 38.5593C79.6752 39.1709 78.6559 39.6126 77.5007 39.8504C76.3794 40.0882 75.2242 40.1902 74.103 40.1902C73.1177 40.1902 72.2003 40.1222 71.3169 40.0203C70.4675 39.9184 69.686 39.7824 69.0405 39.6465L69.1084 33.9045Z" fill="#282828"/>
<path d="M103.629 40.1873C101.182 40.1873 98.974 39.8135 97.0373 39.0321C95.1006 38.2506 93.4698 37.1633 92.1447 35.8043C90.8196 34.4452 89.8003 32.8143 89.1207 30.9456C88.4412 29.0769 88.0675 27.0383 88.0675 24.8298C88.0675 22.7573 88.4412 20.8206 89.1547 18.9859C89.9022 17.1511 90.9215 15.5542 92.2806 14.1952C93.6396 12.8361 95.2705 11.7488 97.1732 10.9674C99.0759 10.1859 101.216 9.7782 103.595 9.7782C106.075 9.7782 108.318 10.1859 110.254 10.9674C112.191 11.7488 113.822 12.8361 115.181 14.2291C116.54 15.5882 117.559 17.2191 118.239 19.0198C118.918 20.8546 119.292 22.7912 119.292 24.8298C119.292 27.0723 118.952 29.1109 118.273 31.0136C117.593 32.8823 116.608 34.5132 115.283 35.8722C113.958 37.2313 112.327 38.2846 110.39 39.0661C108.453 39.8475 106.177 40.1873 103.629 40.1873ZM103.629 15.4523C102.406 15.4523 101.25 15.6901 100.197 16.1318C99.1099 16.5735 98.1925 17.2191 97.411 18.0685C96.6296 18.8839 96.018 19.8692 95.5763 21.0245C95.1346 22.1797 94.8968 23.4368 94.8968 24.8298C94.8968 26.4607 95.1346 27.8877 95.6443 29.1109C96.1539 30.334 96.7995 31.3533 97.6149 32.1688C98.4303 32.9842 99.3477 33.5958 100.401 33.9696C101.454 34.3773 102.542 34.5811 103.663 34.5811C104.886 34.5811 106.041 34.3773 107.094 34.0035C108.182 33.6298 109.099 33.0182 109.914 32.2028C110.73 31.3873 111.341 30.368 111.817 29.1449C112.293 27.9217 112.531 26.4947 112.531 24.8298C112.531 23.4368 112.293 22.1797 111.851 21.0245C111.409 19.8692 110.798 18.8839 110.016 18.0685C109.235 17.2531 108.318 16.6075 107.23 16.1318C106.109 15.6561 104.92 15.4523 103.629 15.4523Z" fill="#282828"/>
<path d="M137.096 24.1191C137.843 24.1871 138.659 24.3909 139.474 24.6627C140.29 24.9346 141.071 25.3763 141.717 25.9199C142.362 26.4635 142.94 27.177 143.381 28.0604C143.823 28.9438 144.027 30.0311 144.027 31.2882C144.027 32.8171 143.721 34.1083 143.11 35.1615C142.498 36.2148 141.649 37.0642 140.561 37.7438C139.474 38.3893 138.217 38.865 136.756 39.1708C135.329 39.4766 133.766 39.6125 132.135 39.6125H123.675V10.3246H131.456C132.883 10.3246 134.276 10.4265 135.635 10.6304C136.994 10.8342 138.251 11.208 139.338 11.7516C140.426 12.2952 141.343 13.0427 142.022 13.9941C142.702 14.9454 143.042 16.1686 143.042 17.6635C143.042 18.8527 142.838 19.8381 142.43 20.6535C142.022 21.435 141.513 22.0805 140.901 22.5562C140.29 23.0319 139.644 23.4056 138.931 23.6434C138.251 23.8473 137.639 24.0172 137.096 24.1191ZM130.334 21.333H132.237C133.8 21.333 134.853 21.0952 135.431 20.5855C136.009 20.0759 136.28 19.4643 136.28 18.7508C136.28 17.7995 136.009 17.0859 135.465 16.6442C134.921 16.2025 133.868 15.9647 132.305 15.9647H130.334V21.333ZM132.815 33.9724C134.412 33.9724 135.567 33.7005 136.28 33.1569C137.028 32.6133 137.368 31.7639 137.368 30.5747C137.368 30.099 137.3 29.6233 137.164 29.2156C137.028 28.8079 136.79 28.4002 136.45 28.0944C136.11 27.7546 135.635 27.5168 135.057 27.3129C134.446 27.1091 133.698 27.0071 132.747 27.0071H130.334V33.9724H132.815Z" fill="#282828"/>
<path d="M167.471 39.6095H148.478V10.3556H166.995V15.9957H155.137V22.3833H166.214V28.0235H155.137V33.9694H167.437V39.6095H167.471Z" fill="#282828"/>
<path d="M171.854 10.3556H181.027C183.474 10.3556 185.41 10.6954 186.871 11.4089C188.332 12.0884 189.454 12.9378 190.201 13.9231C190.949 14.9085 191.458 15.9617 191.696 17.015C191.934 18.1023 192.036 19.0196 192.036 19.7671C192.036 20.3787 191.968 21.0582 191.764 21.8737C191.56 22.6891 191.288 23.5046 190.813 24.286C190.337 25.0675 189.692 25.8489 188.842 26.5624C187.993 27.276 186.939 27.8196 185.58 28.2273L193.463 39.6095H185.275L178.479 28.8049V39.6095H171.82V10.3556H171.854ZM178.513 23.1648H181.027C182.183 23.1648 183.202 22.893 184.017 22.3494C184.867 21.8057 185.275 20.9563 185.275 19.7671C185.275 18.3061 184.901 17.2868 184.119 16.7772C183.338 16.2675 182.319 15.9957 181.027 15.9957H178.513V23.1648Z" fill="#282828"/>
<path d="M197.88 10.3556H207.054C209.5 10.3556 211.437 10.6954 212.898 11.4089C214.359 12.0884 215.48 12.9378 216.228 13.9231C216.975 14.9085 217.485 15.9617 217.722 17.015C217.96 18.1023 218.062 19.0196 218.062 19.7671C218.062 20.3787 217.994 21.0582 217.79 21.8737C217.587 22.6891 217.315 23.5046 216.839 24.286C216.363 25.0675 215.718 25.8489 214.868 26.5624C214.019 27.276 212.966 27.8196 211.607 28.2273L219.489 39.6095H211.301L204.506 28.8049V39.6095H197.846V10.3556H197.88ZM204.54 23.1648H207.054C208.209 23.1648 209.228 22.893 210.044 22.3494C210.893 21.8057 211.301 20.9563 211.301 19.7671C211.301 18.3061 210.927 17.2868 210.146 16.7772C209.364 16.2675 208.345 15.9957 207.054 15.9957H204.54V23.1648Z" fill="#282828"/>
<path d="M236.817 9.84692L249.694 39.6105H242.423L240.011 33.7665H232.366L230.056 39.6105H222.853L235.118 9.84692H236.817ZM237.701 28.0924L236.07 24.1851L234.541 28.0924H237.701Z" fill="#282828"/>
<path d="M54.0568 12.5656C54.0568 12.8034 54.0568 13.0413 54.0229 13.2791V41.3438C54.0229 41.5816 54.0229 41.8195 54.0229 42.0573C54.0229 42.7029 53.9549 43.3144 53.9209 43.96C53.0036 49.804 47.941 54.2889 41.8252 54.2889C35.0639 54.2889 29.5936 48.8187 29.5936 42.0573V12.5316C29.5936 5.77028 35.0639 0.300049 41.8252 0.300049C48.5866 0.334025 54.0568 5.80426 54.0568 12.5656Z" fill="url(#paint0_linear_103_991)"/>
<path d="M48.2808 57.9924C43.3202 64.3121 35.6415 68.3553 27.0114 68.3553C12.8432 68.3553 1.18918 57.4148 0.101931 43.5184C0.0679545 42.9408 0.0339737 42.3632 0.0339737 41.7516C0.203857 35.1261 5.60614 29.8258 12.2656 29.8258C19.0269 29.8258 24.4971 35.296 24.4971 42.0574C24.4971 42.2273 24.4971 42.3971 24.4971 42.533C24.4971 51.8766 32.0739 59.4534 41.4175 59.4534C43.8299 59.4874 46.1742 58.9438 48.2808 57.9924Z" fill="url(#paint1_linear_103_991)"/>
<path d="M23.1041 6.96069C23.1041 6.99467 23.1381 6.99467 23.1381 7.02865C21.0655 9.67883 18.9929 12.295 18.5173 12.8387C17.5319 13.9599 15.7652 16.3043 12.9111 16.6101C10.0911 16.9158 8.83392 16.0664 7.74667 14.4695C6.65942 12.8387 5.36831 10.2904 5.36831 10.2904C5.36831 10.2904 4.82468 9.23712 5.84398 8.62554C6.86328 8.01396 8.63006 7.40239 9.27562 7.6742C9.95515 7.94601 12.3335 12.6348 12.5714 13.1105C12.8092 13.5861 13.5227 14.0278 14.2362 13.1784C14.9157 12.329 16.5126 10.1545 16.5126 10.1545L21.0655 4.14063C19.5026 2.50975 17.5319 1.32057 15.2555 0.742965C15.1536 0.708988 15.0516 0.708984 14.9837 0.675007C14.7459 0.607054 14.474 0.573079 14.2362 0.539103C14.1343 0.539103 14.0323 0.505124 13.9304 0.505124C13.3868 0.437171 12.8092 0.403198 12.2316 0.403198C6.86328 0.403198 2.31041 3.83483 0.645554 8.62554C0.577601 8.79543 0.543626 8.93134 0.509649 9.10122C0.475673 9.27111 0.407716 9.44099 0.37374 9.5769C0.339763 9.67883 0.339764 9.78075 0.305788 9.84871C0.305788 9.91666 0.271814 9.95063 0.271814 10.0186C0.271814 10.0865 0.237835 10.1205 0.237835 10.1885C0.237835 10.2564 0.203857 10.2904 0.203857 10.3584C0.203857 10.4263 0.169883 10.4603 0.169883 10.5282C0.0339766 11.2078 0 11.9213 0 12.6348C0 17.4255 2.7521 21.5707 6.76135 23.5753C8.4262 24.3907 10.2609 24.8664 12.2656 24.8664C18.3813 24.8664 23.4439 20.3815 24.3612 14.5375C24.4632 13.9259 24.4971 13.2804 24.4971 12.6348C24.4971 10.6302 24.0215 8.76145 23.1721 7.09659C23.1381 6.99466 23.1041 6.96069 23.1041 6.96069Z" fill="url(#paint2_linear_103_991)"/>
<path d="M23.1381 7.02693C21.0655 9.67711 18.993 12.2933 18.5173 12.8369C17.532 13.9582 15.7652 16.3025 12.9111 16.6083C10.0911 16.9141 8.83394 16.0647 7.74669 14.4678C6.65943 12.8369 5.36832 10.2887 5.36832 10.2887C5.36832 10.2887 4.82469 9.2354 5.84399 8.62382C6.86329 8.01224 8.63008 7.40067 9.27564 7.67248C9.95517 7.9443 12.3335 12.6331 12.5714 13.1087C12.8092 13.5844 13.5227 14.0261 14.2362 13.1767C14.9158 12.3273 16.5127 10.1528 16.5127 10.1528L21.0655 4.13892C21.1335 4.20687 21.1675 4.24085 21.2014 4.3088C21.9829 5.09026 22.6285 6.00763 23.1381 7.02693Z" fill="white"/>
<defs>
<linearGradient id="paint0_linear_103_991" x1="41.8129" y1="1.60733" x2="41.8129" y2="53.1144" gradientUnits="userSpaceOnUse">
<stop stop-color="#8653EB"/>
<stop offset="0.118" stop-color="#7D5EEC"/>
<stop offset="0.3247" stop-color="#637BF0"/>
<stop offset="0.5957" stop-color="#3AAAF6"/>
<stop offset="0.9175" stop-color="#02EBFF"/>
<stop offset="0.927" stop-color="#00EDFF"/>
</linearGradient>
<linearGradient id="paint1_linear_103_991" x1="-16.4634" y1="49.103" x2="49.1189" y2="49.103" gradientUnits="userSpaceOnUse">
<stop offset="0.1543" stop-color="#8653EB"/>
<stop offset="0.2526" stop-color="#7D5EEC"/>
<stop offset="0.425" stop-color="#637BF0"/>
<stop offset="0.6508" stop-color="#3AAAF6"/>
<stop offset="0.9191" stop-color="#02EBFF"/>
<stop offset="0.927" stop-color="#00EDFF"/>
</linearGradient>
<linearGradient id="paint2_linear_103_991" x1="5.63642" y1="2.26057" x2="18.7906" y2="22.8909" gradientUnits="userSpaceOnUse">
<stop offset="0.1543" stop-color="#8653EB"/>
<stop offset="0.2526" stop-color="#7D5EEC"/>
<stop offset="0.425" stop-color="#637BF0"/>
<stop offset="0.6508" stop-color="#3AAAF6"/>
<stop offset="0.9191" stop-color="#02EBFF"/>
<stop offset="0.927" stop-color="#00EDFF"/>
</linearGradient>
</defs>
</svg>
