<svg width="320" height="93" viewBox="0 0 320 93" fill="none" xmlns="http://www.w3.org/2000/svg">
<path d="M164.35 78.93V81.66H161.16V91.34H158.32V81.66H155.13V78.93H164.35Z" fill="#00435D"/>
<path d="M172.79 91.34L172.13 89.39H167.36L166.74 91.34H163.64L167.86 78.93H171.48L175.71 91.34H172.79ZM168.21 86.73H171.22L169.67 82.17L168.21 86.73Z" fill="#00435D"/>
<path d="M180.83 91.59C179.57 91.59 178.51 91.32 177.67 90.77C176.83 90.22 176.22 89.47 175.87 88.53L178.32 87.11C178.82 88.26 179.68 88.83 180.93 88.83C182.05 88.83 182.61 88.49 182.61 87.82C182.61 87.45 182.43 87.17 182.07 86.96C181.71 86.75 181.03 86.51 180.04 86.24C179.52 86.1 179.07 85.94 178.68 85.76C178.29 85.58 177.91 85.35 177.54 85.06C177.17 84.77 176.88 84.41 176.69 83.97C176.49 83.53 176.4 83.03 176.4 82.46C176.4 81.31 176.81 80.4 177.63 79.71C178.45 79.02 179.43 78.68 180.56 78.68C181.58 78.68 182.47 78.92 183.25 79.4C184.03 79.88 184.64 80.57 185.09 81.48L182.7 82.88C182.48 82.41 182.2 82.05 181.87 81.81C181.54 81.57 181.1 81.45 180.56 81.45C180.13 81.45 179.81 81.54 179.58 81.72C179.35 81.9 179.23 82.13 179.23 82.38C179.23 82.69 179.37 82.95 179.66 83.18C179.95 83.4 180.55 83.65 181.46 83.92C181.96 84.07 182.34 84.2 182.61 84.29C182.88 84.38 183.23 84.54 183.65 84.76C184.07 84.98 184.39 85.21 184.61 85.45C184.83 85.69 185.02 86.01 185.19 86.41C185.36 86.81 185.45 87.26 185.45 87.77C185.45 88.95 185.02 89.88 184.17 90.56C183.31 91.25 182.2 91.59 180.83 91.59Z" fill="#00435D"/>
<path d="M196.8 91.34H193.57L189.6 85.61V91.34H186.76V78.93H189.6V84.32L193.39 78.93H196.62L192.44 84.97L196.8 91.34Z" fill="#00435D"/>
<path d="M214.7 78.93V91.34H211.86V84.13L208.65 89.39H208.33L205.12 84.13V91.34H202.28V78.93H205.12L208.49 84.44L211.86 78.93H214.7Z" fill="#00435D"/>
<path d="M224.92 91.34L224.26 89.39H219.49L218.87 91.34H215.77L219.99 78.93H223.61L227.84 91.34H224.92ZM220.34 86.73H223.35L221.8 82.17L220.34 86.73Z" fill="#00435D"/>
<path d="M235.8 78.93H238.64V91.34H236.51L231.72 84.6V91.34H228.88V78.93H231.01L235.8 85.67V78.93Z" fill="#00435D"/>
<path d="M248.85 91.34L248.19 89.39H243.42L242.8 91.34H239.7L243.92 78.93H247.54L251.77 91.34H248.85ZM244.27 86.73H247.28L245.73 82.17L244.27 86.73Z" fill="#00435D"/>
<path d="M264.66 84.43V85.49C264.66 87.35 264.08 88.83 262.93 89.93C261.78 91.04 260.32 91.59 258.54 91.59C256.61 91.59 255.01 90.97 253.75 89.73C252.48 88.49 251.84 86.96 251.84 85.16C251.84 83.35 252.47 81.82 253.73 80.57C254.99 79.32 256.53 78.69 258.35 78.69C259.51 78.69 260.57 78.95 261.53 79.47C262.49 79.99 263.24 80.68 263.77 81.53L261.36 82.91C261.09 82.48 260.68 82.14 260.15 81.86C259.61 81.59 259.01 81.45 258.33 81.45C257.28 81.45 256.41 81.8 255.72 82.5C255.03 83.2 254.68 84.09 254.68 85.18C254.68 86.25 255.03 87.13 255.74 87.81C256.45 88.49 257.39 88.83 258.58 88.83C260.22 88.83 261.28 88.19 261.75 86.92H258.44V84.44H264.66V84.43Z" fill="#00435D"/>
<path d="M269.09 88.61H274.05V91.34H266.25V78.93H273.96V81.66H269.08V83.72H273.51V86.41H269.08V88.61H269.09Z" fill="#00435D"/>
<path d="M288.05 78.93V91.34H285.21V84.13L282 89.39H281.68L278.47 84.13V91.34H275.63V78.93H278.47L281.84 84.44L285.21 78.93H288.05Z" fill="#00435D"/>
<path d="M293.02 88.61H297.98V91.34H290.18V78.93H297.89V81.66H293.01V83.72H297.44V86.41H293.01V88.61H293.02Z" fill="#00435D"/>
<path d="M306.49 78.93H309.33V91.34H307.2L302.41 84.6V91.34H299.57V78.93H301.7L306.49 85.67V78.93Z" fill="#00435D"/>
<path d="M319.78 78.93V81.66H316.59V91.34H313.75V81.66H310.56V78.93H319.78Z" fill="#00435D"/>
<path d="M135.78 19.83H155.8L139.59 73C137.25 79.92 133.59 84.93 128.61 88.02C123.65 91.11 117.1 92.48 108.96 92.18V75.49C112.2 75.49 114.69 75.24 116.41 74.77C118.13 74.3 119.5 73.43 120.52 72.16L101.44 19.84H121.49L129.96 45.29L135.78 19.83Z" fill="#00435D"/>
<path d="M180.8 68.84C173.68 68.84 167.63 66.42 162.62 61.59C157.61 56.76 155.12 50.78 155.12 43.66C155.12 36.54 157.61 30.56 162.57 25.73C167.53 20.9 173.6 18.48 180.8 18.48C188 18.48 194.05 20.9 199.03 25.73C203.99 30.56 206.48 36.54 206.48 43.66C206.48 50.78 203.99 56.76 199.03 61.59C194.08 66.42 188 68.84 180.8 68.84ZM175.03 49.71C176.52 51.28 178.44 52.05 180.81 52.05C183.15 52.05 185.09 51.28 186.59 49.71C188.08 48.14 188.83 46.12 188.83 43.66C188.83 41.17 188.08 39.15 186.59 37.61C185.1 36.04 183.18 35.27 180.81 35.27C178.47 35.27 176.53 36.04 175.03 37.61C173.54 39.18 172.79 41.2 172.79 43.66C172.78 46.15 173.53 48.17 175.03 49.71Z" fill="#00435D"/>
<path d="M244.53 0.75H262.19V67.51H244.53V63.23C241.47 66.99 237.21 68.86 231.75 68.86C225.33 68.86 220.07 66.47 216.01 61.71C211.93 56.93 209.91 50.93 209.91 43.68C209.91 36.43 211.95 30.43 216.01 25.65C220.07 20.87 225.32 18.5 231.75 18.5C237.23 18.5 241.49 20.37 244.53 24.13V0.75ZM229.89 50.06C231.46 51.78 233.5 52.63 236.04 52.63C238.58 52.63 240.65 51.78 242.19 50.06C243.73 48.34 244.53 46.23 244.53 43.66C244.53 41.12 243.76 38.98 242.19 37.26C240.62 35.54 238.58 34.7 236.04 34.7C233.5 34.7 231.46 35.55 229.89 37.26C228.32 38.98 227.55 41.12 227.55 43.66C227.55 46.2 228.32 48.34 229.89 50.06Z" fill="#00435D"/>
<path d="M302.13 19.83H319.79V67.52H302.13V63.24C299.07 67 294.81 68.87 289.35 68.87C282.93 68.87 277.67 66.48 273.61 61.72C269.55 56.94 267.51 50.94 267.51 43.69C267.51 36.44 269.55 30.44 273.61 25.66C277.67 20.88 282.92 18.51 289.35 18.51C294.83 18.51 299.09 20.38 302.13 24.14V19.83ZM287.49 50.06C289.06 51.78 291.1 52.63 293.64 52.63C296.18 52.63 298.22 51.78 299.79 50.06C301.36 48.34 302.13 46.23 302.13 43.66C302.13 41.12 301.36 38.98 299.79 37.26C298.22 35.54 296.18 34.7 293.64 34.7C291.1 34.7 289.06 35.55 287.49 37.26C285.92 38.98 285.15 41.12 285.15 43.66C285.17 46.2 285.94 48.34 287.49 50.06Z" fill="#00435D"/>
<path d="M38.19 92.25C38.19 92.25 58.49 65.53 38.44 36.97C38.43 36.99 18.84 59.72 38.19 92.25Z" fill="#00435D"/>
<path d="M32.11 36.96C32.11 36.96 25.14 23.26 0.859984 20.25C0.859984 20.25 -5.84002 51.05 24.12 64.5C24.12 64.5 22.07 48.07 32.11 36.96Z" fill="#00435D"/>
<path d="M44.76 37.01C54.7 48.22 52.5 64.63 52.5 64.63C82.58 51.43 76.16 20.58 76.16 20.58C51.86 23.37 44.76 37.01 44.76 37.01Z" fill="#00435D"/>
<path d="M39.47 32.97C42.92 32.43 45.28 29.19 44.73 25.74C44.19 22.29 40.95 19.93 37.5 20.48C34.05 21.02 31.69 24.26 32.24 27.71C32.78 31.16 36.02 33.51 39.47 32.97Z" fill="#00435D"/>
</svg>
